<svg version="1.2" baseProfile="tiny-ps" xmlns="http://www.w3.org/2000/svg" viewBox="0 0 2391 155" width="2391" height="155">
	<title>45873-ai</title>
	<style>
		tspan { white-space:pre }
		.shp0 { fill: #ffba3c } 
		.shp1 { fill: #ff762c } 
		.shp2 { fill: #bd351e } 
		.shp3 { fill: #bf642e } 
		.shp4 { fill: #ff8d31 } 
		.shp5 { fill: #ffe64c } 
	</style>
	<g id="Capa 1" style="opacity: 0.98">
		<g id="&lt;Group&gt;">
			<g id="&lt;Group&gt;">
				<g id="&lt;Group&gt;">
					<path id="&lt;Path&gt;" class="shp0" d="M1196.91 312.81L0 312.81L0 121.77L1196.91 121.77L1196.91 312.81Z" />
					<path id="&lt;Path&gt;" class="shp1" d="M1196.91 533.24L0 533.24L0 312.81L1196.91 312.81L1196.91 533.24Z" />
					<path id="&lt;Path&gt;" class="shp2" d="M1196.91 533.24L0 533.24L0 434.86L1196.91 434.86L1196.91 533.24Z" />
					<path id="&lt;Path&gt;" class="shp2" d="M1158.01 426.33L1196.91 426.33L1196.91 404.29L1171.97 404.29L1171.97 335.7L1106.83 335.7L1106.83 374.9L1034.71 374.9L1034.71 312.81L1009.12 312.81L1009.12 365.1L976.55 365.1L976.55 384.69L934.67 384.69L934.67 365.1L871.86 365.1L871.86 394.49L811.37 394.49L811.37 312.81L799.74 312.81L799.74 360.2L727.62 360.2L727.62 411.63L639.21 411.63L639.21 372.44L581.04 372.44L581.04 350.4L562.44 350.4L562.44 426.33L497.3 426.33L497.3 377.34L464.72 377.34L464.72 414.08L406.56 414.08L406.56 372.44L353.05 372.44L353.05 338.15L332.11 338.15L332.11 365.1L313.5 365.1L313.5 404.29L273.95 404.29L273.95 365.1L222.77 365.1L222.77 414.08L183.22 414.08L183.22 350.4L108.77 350.4L108.77 377.34L45.95 377.34L45.95 421.43L0 421.43L0 465.52L55.26 465.52L55.26 533.24L85.51 533.24L85.51 443.47L129.71 443.47L129.71 487.56L162.28 487.56L162.28 458.17L234.4 458.17L234.4 497.36L269.3 497.36L269.3 460.62L336.77 460.62L336.77 504.71L387.95 504.71L387.95 472.87L432.15 472.87L432.15 482.66L497.3 482.66L497.3 458.17L611.29 458.17L611.29 443.47L753.21 443.47L753.21 497.36L774.14 497.36L774.14 467.97L888.14 467.97L888.14 533.24L932.35 533.24L932.35 426.33L978.87 426.33L978.87 477.77L1013.77 477.77L1013.77 441.03L1095.2 441.03L1095.2 514.51L1151.03 514.51L1151.03 482.66L1158.01 482.66L1158.01 426.33Z" />
				</g>
				<path id="&lt;Path&gt;" class="shp3" d="M1152.84 354.44L1164.34 354.44L1164.34 353.88C1160.5 354 1156.67 354.19 1152.84 354.44Z" />
				<path id="&lt;Path&gt;" class="shp1" d="M361.78 407.1L330.95 407.1L330.95 438.95L361.78 438.95L361.78 407.1Z" />
				<path id="&lt;Path&gt;" class="shp1" d="M430.99 432L400.16 432L400.16 463.84L430.99 463.84L430.99 432Z" />
				<path id="&lt;Path&gt;" class="shp1" d="M619.05 387.91L588.22 387.91L588.22 419.76L619.05 419.76L619.05 387.91Z" />
				<path id="&lt;Path&gt;" class="shp1" d="M588.61 434.86L557.78 434.86L557.78 466.71L588.61 466.71L588.61 434.86Z" />
				<path id="&lt;Path&gt;" class="shp1" d="M703.77 398.12L672.94 398.12L672.94 429.96L703.77 429.96L703.77 398.12Z" />
				<path id="&lt;Path&gt;" class="shp1" d="M796.83 407.1L766 407.1L766 438.95L796.83 438.95L796.83 407.1Z" />
				<path id="&lt;Path&gt;" class="shp1" d="M849.17 423.03L818.35 423.03L818.35 454.87L849.17 454.87L849.17 423.03Z" />
				<path id="&lt;Path&gt;" class="shp1" d="M921.88 382.2L891.05 382.2L891.05 414.04L921.88 414.04L921.88 382.2Z" />
				<path id="&lt;Path&gt;" class="shp1" d="M1001.85 393.22L971.02 393.22L971.02 425.07L1001.85 425.07L1001.85 393.22Z" />
				<path id="&lt;Path&gt;" class="shp1" d="M1125.93 382.2L1095.1 382.2L1095.1 414.04L1125.93 414.04L1125.93 382.2Z" />
				<path id="&lt;Path&gt;" class="shp1" d="M1149.58 438.95L1118.75 438.95L1118.75 470.78L1149.58 470.78L1149.58 438.95Z" />
				<path id="&lt;Path&gt;" class="shp1" d="M1077.17 423.03L1046.35 423.03L1046.35 454.87L1077.17 454.87L1077.17 423.03Z" />
				<path id="&lt;Path&gt;" class="shp1" d="M943.74 474.87L912.91 474.87L912.91 506.71L943.74 506.71L943.74 474.87Z" />
				<path id="&lt;Path&gt;" class="shp1" d="M300.12 438.95L269.3 438.95L269.3 470.78L300.12 470.78L300.12 438.95Z" />
				<path id="&lt;Path&gt;" class="shp1" d="M193.1 441.24L162.28 441.24L162.28 473.08L193.1 473.08L193.1 441.24Z" />
				<path id="&lt;Path&gt;" class="shp1" d="M138.82 375.26L108 375.26L108 407.1L138.82 407.1L138.82 375.26Z" />
				<path id="&lt;Path&gt;" class="shp1" d="M58.17 420.57L27.34 420.57L27.34 452.41L58.17 452.41L58.17 420.57Z" />
				<path id="&lt;Path&gt;" class="shp4" d="M1162.67 171.6L1162.67 200.99L1139.4 200.99L1139.4 230.38L1085.89 230.38L1085.89 254.88L1034.71 254.88L1034.71 213.24L1011.45 213.24L1011.45 200.99L964.92 200.99L964.92 186.3L923.04 186.3L923.04 223.04L902.1 223.04L902.1 276.92L878.83 276.92L878.83 223.04L841.61 223.04L841.61 174.05L816.02 174.05L816.02 242.63L732.27 242.63L732.27 176.5L655.49 176.5L655.49 225.49L613.62 225.49L613.62 249.98L560.11 249.98L560.11 218.14L541.49 218.14L541.49 232.83L487.99 232.83L487.99 154.45L439.13 154.45L439.13 193.65L367.01 193.65L367.01 220.59L262.32 220.59L262.32 289.17L215.79 289.17L215.79 193.65L155.3 193.65L155.3 227.93L76.2 227.93L76.2 276.92L0 276.92L0 312.81L59.92 312.81L59.92 328.73L97.14 328.73L97.14 312.81L141.34 312.81L141.34 328.73L178.57 328.73L178.57 312.81L205.32 312.81L205.32 337.91L242.54 337.91L242.54 312.81L283.26 312.81L283.26 331.18L320.48 331.18L320.48 312.81L393.76 312.81L393.76 329.58L430.99 329.58L430.99 312.81L539.17 312.81L539.17 337.91L576.39 337.91L576.39 312.81L614.78 312.81L614.78 329.58L652.01 329.58L652.01 312.81L750.88 312.81L750.88 337.91L788.1 337.91L788.1 329.58L825.32 329.58L825.32 312.81L853.83 312.81L853.83 337.91L891.05 337.91L891.05 312.81L909.72 312.81L909.72 328.73L946.94 328.73L946.94 312.81L967.83 312.81L967.83 337.91L1005.05 337.91L1005.05 312.81L1105.09 312.81L1105.09 318.93L1142.31 318.93L1142.31 312.81L1196.91 312.81L1196.91 171.6L1162.67 171.6Z" />
				<path id="&lt;Path&gt;" class="shp5" d="M1196.91 17.47L1162.67 17.47L1162.67 46.87L1139.4 46.87L1139.4 76.26L1085.89 76.26L1085.89 100.75L1034.71 100.75L1034.71 59.11L1011.45 59.11L1011.45 46.87L964.92 46.87L964.92 32.17L923.04 32.17L923.04 68.91L902.1 68.91L902.1 122.8L878.83 122.8L878.83 68.91L841.61 68.91L841.61 19.92L816.02 19.92L816.02 88.51L732.27 88.51L732.27 22.37L655.49 22.37L655.49 71.36L613.62 71.36L613.62 95.85L560.11 95.85L560.11 64.01L541.49 64.01L541.49 78.71L487.99 78.71L487.99 0.33L439.13 0.33L439.13 39.52L367.01 39.52L367.01 66.47L262.32 66.47L262.32 135.04L215.79 135.04L215.79 39.52L155.3 39.52L155.3 73.81L76.2 73.81L76.2 122.8L0 122.8L0 158.68L59.92 158.68L59.92 174.6L97.14 174.6L97.14 158.68L205.32 158.68L205.32 183.79L242.54 183.79L242.54 158.68L283.26 158.68L283.26 177.05L320.48 177.05L320.48 158.68L393.76 158.68L393.76 175.45L430.99 175.45L430.99 158.68L539.17 158.68L539.17 183.79L576.39 183.79L576.39 158.68L614.78 158.68L614.78 175.45L652.01 175.45L652.01 158.68L750.88 158.68L750.88 183.79L788.1 183.79L788.1 158.68L853.83 158.68L853.83 183.79L891.05 183.79L891.05 158.68L967.83 158.68L967.83 183.79L1005.05 183.79L1005.05 158.68L1105.09 158.68L1105.09 164.8L1142.31 164.8L1142.31 158.68L1196.91 158.68L1196.91 17.47Z" />
			</g>
			<g id="&lt;Group&gt;">
				<g id="&lt;Group&gt;">
					<path id="&lt;Path&gt;" class="shp0" d="M2390.77 312.81L1193.86 312.81L1193.86 121.77L2390.77 121.77L2390.77 312.81Z" />
					<path id="&lt;Path&gt;" class="shp1" d="M2390.77 533.24L1193.86 533.24L1193.86 312.81L2390.77 312.81L2390.77 533.24Z" />
					<path id="&lt;Path&gt;" class="shp2" d="M2390.77 533.24L1193.86 533.24L1193.86 434.86L2390.77 434.86L2390.77 533.24Z" />
					<path id="&lt;Path&gt;" class="shp2" d="M2351.87 426.33L2390.77 426.33L2390.77 404.29L2365.83 404.29L2365.83 335.7L2300.69 335.7L2300.69 374.9L2228.57 374.9L2228.57 312.81L2202.98 312.81L2202.98 365.1L2170.4 365.1L2170.4 384.69L2128.53 384.69L2128.53 365.1L2065.72 365.1L2065.72 394.49L2005.22 394.49L2005.22 312.81L1993.59 312.81L1993.59 360.2L1921.47 360.2L1921.47 411.63L1833.07 411.63L1833.07 372.44L1774.9 372.44L1774.9 350.4L1756.29 350.4L1756.29 426.33L1691.15 426.33L1691.15 377.34L1658.58 377.34L1658.58 414.08L1600.42 414.08L1600.42 372.44L1546.91 372.44L1546.91 338.15L1525.97 338.15L1525.97 365.1L1507.36 365.1L1507.36 404.29L1467.81 404.29L1467.81 365.1L1416.62 365.1L1416.62 414.08L1377.07 414.08L1377.07 350.4L1302.62 350.4L1302.62 377.34L1239.81 377.34L1239.81 421.43L1193.86 421.43L1193.86 465.52L1249.12 465.52L1249.12 533.24L1279.36 533.24L1279.36 443.47L1323.57 443.47L1323.57 487.56L1356.14 487.56L1356.14 458.17L1428.26 458.17L1428.26 497.36L1463.15 497.36L1463.15 460.62L1530.62 460.62L1530.62 504.71L1581.81 504.71L1581.81 472.87L1626.01 472.87L1626.01 482.66L1691.15 482.66L1691.15 458.17L1805.15 458.17L1805.15 443.47L1947.07 443.47L1947.07 497.36L1968 497.36L1968 467.97L2082 467.97L2082 533.24L2126.2 533.24L2126.2 426.33L2172.73 426.33L2172.73 477.77L2207.63 477.77L2207.63 441.03L2289.06 441.03L2289.06 514.51L2344.89 514.51L2344.89 482.66L2351.87 482.66L2351.87 426.33Z" />
				</g>
				<path id="&lt;Path&gt;" class="shp3" d="M2346.7 354.44L2358.2 354.44L2358.2 353.88C2354.36 354 2350.53 354.19 2346.7 354.44Z" />
				<path id="&lt;Path&gt;" class="shp1" d="M1555.63 407.1L1524.8 407.1L1524.8 438.95L1555.63 438.95L1555.63 407.1Z" />
				<path id="&lt;Path&gt;" class="shp1" d="M1624.85 432L1594.02 432L1594.02 463.84L1624.85 463.84L1624.85 432Z" />
				<path id="&lt;Path&gt;" class="shp1" d="M1812.9 387.91L1782.08 387.91L1782.08 419.76L1812.9 419.76L1812.9 387.91Z" />
				<path id="&lt;Path&gt;" class="shp1" d="M1782.46 434.86L1751.64 434.86L1751.64 466.71L1782.46 466.71L1782.46 434.86Z" />
				<path id="&lt;Path&gt;" class="shp1" d="M1897.63 398.12L1866.8 398.12L1866.8 429.96L1897.63 429.96L1897.63 398.12Z" />
				<path id="&lt;Path&gt;" class="shp1" d="M1990.69 407.1L1959.85 407.1L1959.85 438.95L1990.69 438.95L1990.69 407.1Z" />
				<path id="&lt;Path&gt;" class="shp1" d="M2043.03 423.03L2012.21 423.03L2012.21 454.87L2043.03 454.87L2043.03 423.03Z" />
				<path id="&lt;Path&gt;" class="shp1" d="M2115.73 382.2L2084.91 382.2L2084.91 414.04L2115.73 414.04L2115.73 382.2Z" />
				<path id="&lt;Path&gt;" class="shp1" d="M2195.7 393.22L2164.88 393.22L2164.88 425.07L2195.7 425.07L2195.7 393.22Z" />
				<path id="&lt;Path&gt;" class="shp1" d="M2319.78 382.2L2288.96 382.2L2288.96 414.04L2319.78 414.04L2319.78 382.2Z" />
				<path id="&lt;Path&gt;" class="shp1" d="M2343.44 438.95L2312.61 438.95L2312.61 470.78L2343.44 470.78L2343.44 438.95Z" />
				<path id="&lt;Path&gt;" class="shp1" d="M2271.03 423.03L2240.2 423.03L2240.2 454.87L2271.03 454.87L2271.03 423.03Z" />
				<path id="&lt;Path&gt;" class="shp1" d="M2137.6 474.87L2106.77 474.87L2106.77 506.71L2137.6 506.71L2137.6 474.87Z" />
				<path id="&lt;Path&gt;" class="shp1" d="M1493.98 438.95L1463.15 438.95L1463.15 470.78L1493.98 470.78L1493.98 438.95Z" />
				<path id="&lt;Path&gt;" class="shp1" d="M1386.96 441.24L1356.14 441.24L1356.14 473.08L1386.96 473.08L1386.96 441.24Z" />
				<path id="&lt;Path&gt;" class="shp1" d="M1332.68 375.26L1301.85 375.26L1301.85 407.1L1332.68 407.1L1332.68 375.26Z" />
				<path id="&lt;Path&gt;" class="shp1" d="M1252.03 420.57L1221.2 420.57L1221.2 452.41L1252.03 452.41L1252.03 420.57Z" />
				<path id="&lt;Path&gt;" class="shp4" d="M2356.53 171.6L2356.53 200.99L2333.26 200.99L2333.26 230.38L2279.75 230.38L2279.75 254.88L2228.57 254.88L2228.57 213.24L2205.3 213.24L2205.3 200.99L2158.77 200.99L2158.77 186.3L2116.89 186.3L2116.89 223.04L2095.96 223.04L2095.96 276.92L2072.69 276.92L2072.69 223.04L2035.47 223.04L2035.47 174.05L2009.88 174.05L2009.88 242.63L1926.12 242.63L1926.12 176.5L1849.35 176.5L1849.35 225.49L1807.47 225.49L1807.47 249.98L1753.97 249.98L1753.97 218.14L1735.35 218.14L1735.35 232.83L1681.84 232.83L1681.84 154.45L1632.99 154.45L1632.99 193.65L1560.87 193.65L1560.87 220.59L1456.17 220.59L1456.17 289.17L1409.65 289.17L1409.65 193.65L1349.16 193.65L1349.16 227.93L1270.06 227.93L1270.06 276.92L1193.86 276.92L1193.86 312.81L1253.77 312.81L1253.77 328.73L1291 328.73L1291 312.81L1335.2 312.81L1335.2 328.73L1372.43 328.73L1372.43 312.81L1399.17 312.81L1399.17 337.91L1436.4 337.91L1436.4 312.81L1477.12 312.81L1477.12 331.18L1514.34 331.18L1514.34 312.81L1587.62 312.81L1587.62 329.58L1624.85 329.58L1624.85 312.81L1733.03 312.81L1733.03 337.91L1770.25 337.91L1770.25 312.81L1808.64 312.81L1808.64 329.58L1845.86 329.58L1845.86 312.81L1944.74 312.81L1944.74 337.91L1981.96 337.91L1981.96 329.58L2019.18 329.58L2019.18 312.81L2047.68 312.81L2047.68 337.91L2084.91 337.91L2084.91 312.81L2103.57 312.81L2103.57 328.73L2140.8 328.73L2140.8 312.81L2161.68 312.81L2161.68 337.91L2198.91 337.91L2198.91 312.81L2298.94 312.81L2298.94 318.93L2336.17 318.93L2336.17 312.81L2390.77 312.81L2390.77 171.6L2356.53 171.6Z" />
				<path id="&lt;Path&gt;" class="shp5" d="M2390.77 17.47L2356.53 17.47L2356.53 46.87L2333.26 46.87L2333.26 76.26L2279.75 76.26L2279.75 100.75L2228.57 100.75L2228.57 59.11L2205.3 59.11L2205.3 46.87L2158.77 46.87L2158.77 32.17L2116.89 32.17L2116.89 68.91L2095.96 68.91L2095.96 122.8L2072.69 122.8L2072.69 68.91L2035.47 68.91L2035.47 19.92L2009.88 19.92L2009.88 88.51L1926.12 88.51L1926.12 22.37L1849.35 22.37L1849.35 71.36L1807.47 71.36L1807.47 95.85L1753.97 95.85L1753.97 64.01L1735.35 64.01L1735.35 78.71L1681.84 78.71L1681.84 0.33L1632.99 0.33L1632.99 39.52L1560.87 39.52L1560.87 66.47L1456.17 66.47L1456.17 135.04L1409.65 135.04L1409.65 39.52L1349.16 39.52L1349.16 73.81L1270.06 73.81L1270.06 122.8L1193.86 122.8L1193.86 158.68L1253.77 158.68L1253.77 174.6L1291 174.6L1291 158.68L1399.17 158.68L1399.17 183.79L1436.4 183.79L1436.4 158.68L1477.12 158.68L1477.12 177.05L1514.34 177.05L1514.34 158.68L1587.62 158.68L1587.62 175.45L1624.85 175.45L1624.85 158.68L1733.03 158.68L1733.03 183.79L1770.25 183.79L1770.25 158.68L1808.64 158.68L1808.64 175.45L1845.86 175.45L1845.86 158.68L1944.74 158.68L1944.74 183.79L1981.96 183.79L1981.96 158.68L2047.68 158.68L2047.68 183.79L2084.91 183.79L2084.91 158.68L2161.68 158.68L2161.68 183.79L2198.91 183.79L2198.91 158.68L2298.94 158.68L2298.94 164.8L2336.17 164.8L2336.17 158.68L2390.77 158.68L2390.77 17.47Z" />
			</g>
		</g>
	</g>
</svg>