<svg width="430" height="450" viewBox="0 0 430 450" fill="none" xmlns="http://www.w3.org/2000/svg">
<circle cx="215" cy="300" r="150" fill="#FF7471"/>
<path d="M103.824 289.748C103.685 289.159 103.495 288.361 103.252 287.356C103.009 286.351 102.749 285.241 102.472 284.028C102.195 282.815 101.9 281.549 101.588 280.232C101.311 278.915 101.033 277.684 100.756 276.54C100.513 275.361 100.271 274.321 100.028 273.42C99.82 272.484 99.664 271.791 99.56 271.34C98.416 271.444 97.48 271.513 96.752 271.548C96.0587 271.548 95.4867 271.548 95.036 271.548C94.5853 271.548 94.2213 271.548 93.944 271.548C93.6667 271.548 93.4067 271.565 93.164 271.6C92.332 274.373 91.5693 277.164 90.876 279.972C90.1827 282.78 89.5413 285.484 88.952 288.084C88.3627 290.684 87.8427 293.145 87.392 295.468C86.976 297.756 86.612 299.784 86.3 301.552C85.988 303.32 85.7453 304.759 85.572 305.868C85.3987 306.977 85.2773 307.653 85.208 307.896C85.2427 307.931 85.2773 307.948 85.312 307.948C87.6693 307.913 89.4027 307.931 90.512 308C91.6213 308.069 92.3147 308.069 92.592 308C92.6267 308 92.644 308 92.644 308C92.6787 307.965 92.7133 307.948 92.748 307.948C93.06 307.359 93.3027 306.683 93.476 305.92C93.6493 305.157 93.8053 304.377 93.944 303.58C94.1173 302.748 94.2733 301.968 94.412 301.24C94.5853 300.477 94.7933 299.819 95.036 299.264C95.4173 299.264 95.712 299.264 95.92 299.264C96.1627 299.229 96.3707 299.212 96.544 299.212C96.752 299.212 96.9773 299.212 97.22 299.212C97.4627 299.212 97.8093 299.247 98.26 299.316C98.5027 299.836 98.728 300.46 98.936 301.188C99.144 301.916 99.3347 302.679 99.508 303.476C99.716 304.273 99.9067 305.053 100.08 305.816C100.288 306.579 100.496 307.237 100.704 307.792H100.756C101.865 308.035 103.044 308.173 104.292 308.208C105.54 308.277 106.684 308.208 107.724 308V307.948L103.824 289.748ZM98.52 293.128C97.8613 293.128 97.2027 293.145 96.544 293.18C95.8853 293.18 95.2613 293.163 94.672 293.128C94.9147 291.36 95.1227 289.713 95.296 288.188C95.504 286.663 95.6773 285.397 95.816 284.392C95.9893 283.387 96.1627 282.728 96.336 282.416C96.544 282.069 96.7347 282.191 96.908 282.78C97.116 283.369 97.3413 284.496 97.584 286.16C97.8613 287.824 98.1733 290.147 98.52 293.128Z" fill="#FFDE39"/>
<path d="M167.764 404.268C167.729 403.991 167.712 403.679 167.712 403.332C167.747 402.951 167.781 402.587 167.816 402.24C167.851 401.859 167.868 401.477 167.868 401.096C167.591 401.131 167.088 401.148 166.36 401.148C165.667 401.113 164.852 401.079 163.916 401.044C163.015 401.009 162.044 400.975 161.004 400.94C159.999 400.871 159.045 400.819 158.144 400.784C157.243 400.749 156.445 400.732 155.752 400.732C155.093 400.697 154.643 400.715 154.4 400.784V400.732C154.435 398.513 154.435 396.225 154.4 393.868C154.4 391.476 154.383 389.084 154.348 386.692C154.313 384.3 154.279 381.925 154.244 379.568C154.244 377.176 154.279 374.853 154.348 372.6C153.863 372.392 153.221 372.236 152.424 372.132C151.627 372.028 150.812 371.976 149.98 371.976C149.148 371.976 148.368 372.028 147.64 372.132C146.912 372.201 146.375 372.305 146.028 372.444C146.063 374.871 146.097 377.089 146.132 379.1C146.167 381.076 146.201 382.948 146.236 384.716C146.271 386.484 146.288 388.217 146.288 389.916C146.288 391.615 146.271 393.383 146.236 395.22C146.236 397.023 146.201 398.981 146.132 401.096C146.063 403.176 145.976 405.516 145.872 408.116V409.052C150.067 409.121 153.412 409.156 155.908 409.156C158.439 409.156 160.415 409.139 161.836 409.104C163.292 409.069 164.315 409.035 164.904 409C165.528 408.965 166.031 408.965 166.412 409C166.793 409 167.088 409 167.296 409C167.504 408.965 167.643 408.809 167.712 408.532C167.816 408.22 167.868 407.752 167.868 407.128C167.868 406.469 167.833 405.516 167.764 404.268Z" fill="#FFDE39"/>
<path d="M278.636 390.904C278.567 390.939 278.532 390.956 278.532 390.956C278.497 390.956 278.48 390.973 278.48 391.008V391.06C278.549 391.684 278.584 392.204 278.584 392.62C278.584 393.036 278.567 393.452 278.532 393.868C278.532 394.249 278.532 394.648 278.532 395.064C278.567 395.48 278.619 395.965 278.688 396.52C278.861 396.589 279.104 396.641 279.416 396.676C279.763 396.676 280.127 396.676 280.508 396.676C280.924 396.641 281.305 396.624 281.652 396.624C282.033 396.589 282.328 396.589 282.536 396.624C282.64 396.659 282.692 396.815 282.692 397.092C282.727 397.369 282.727 397.681 282.692 398.028C282.692 398.375 282.657 398.721 282.588 399.068C282.553 399.38 282.519 399.605 282.484 399.744C282.345 400.229 282.137 400.628 281.86 400.94C281.583 401.217 281.253 401.443 280.872 401.616C280.387 401.789 279.849 401.928 279.26 402.032C278.705 402.136 278.168 402.153 277.648 402.084C277.163 401.98 276.764 401.824 276.452 401.616C275.793 401.096 275.36 400.385 275.152 399.484C274.944 398.583 274.805 397.751 274.736 396.988C274.632 395.705 274.563 394.353 274.528 392.932C274.493 391.511 274.511 390.141 274.58 388.824C274.649 387.472 274.753 386.207 274.892 385.028C275.065 383.849 275.273 382.844 275.516 382.012C275.585 381.735 275.672 381.457 275.776 381.18C275.915 380.868 276.019 380.677 276.088 380.608C276.504 380.192 276.989 379.984 277.544 379.984C278.099 379.984 278.671 380.001 279.26 380.036C279.78 380.036 280.231 380.209 280.612 380.556C280.993 380.868 281.323 381.249 281.6 381.7C281.912 382.116 282.155 382.584 282.328 383.104C282.536 383.589 282.692 384.005 282.796 384.352C283.316 384.421 283.767 384.473 284.148 384.508C284.529 384.543 284.893 384.56 285.24 384.56C285.621 384.56 285.985 384.56 286.332 384.56C286.713 384.525 287.164 384.508 287.684 384.508C288.239 384.473 288.637 384.456 288.88 384.456C289.123 384.456 289.279 384.404 289.348 384.3L289.4 383.988C289.643 381.873 289.452 380.053 288.828 378.528C288.204 376.968 287.268 375.72 286.02 374.784C284.772 373.848 283.281 373.207 281.548 372.86C279.815 372.479 277.995 372.409 276.088 372.652C275.152 372.791 274.251 372.999 273.384 373.276C272.517 373.553 271.737 373.987 271.044 374.576C270.039 375.269 269.311 376.153 268.86 377.228C268.444 378.303 268.149 379.412 267.976 380.556C267.803 381.665 267.681 382.809 267.612 383.988C267.543 385.132 267.491 386.259 267.456 387.368C267.421 388.651 267.404 389.795 267.404 390.8C267.439 391.771 267.473 392.707 267.508 393.608C267.577 394.475 267.647 395.359 267.716 396.26C267.785 397.161 267.872 398.167 267.976 399.276C268.045 399.969 268.132 400.663 268.236 401.356C268.375 402.015 268.496 402.535 268.6 402.916C269.016 404.407 269.588 405.655 270.316 406.66C271.044 407.665 272.101 408.463 273.488 409.052C274.32 409.399 275.187 409.624 276.088 409.728C277.024 409.832 277.977 409.832 278.948 409.728C279.919 409.659 280.872 409.52 281.808 409.312C282.744 409.139 283.645 408.931 284.512 408.688C285.829 408.203 286.939 407.492 287.84 406.556C288.741 405.62 289.279 404.268 289.452 402.5C289.799 400.628 289.937 398.669 289.868 396.624C289.799 394.544 289.66 392.585 289.452 390.748L289.4 390.696H289.296C288.949 390.696 288.273 390.661 287.268 390.592C286.297 390.488 285.24 390.419 284.096 390.384C282.952 390.349 281.86 390.367 280.82 390.436C279.815 390.471 279.087 390.627 278.636 390.904Z" fill="#FFDE39"/>
<path d="M225.388 180.212C224.972 179.969 224.435 179.813 223.776 179.744C223.117 179.675 222.424 179.657 221.696 179.692C220.968 179.727 220.24 179.796 219.512 179.9C218.819 179.969 218.247 180.021 217.796 180.056C217.692 184.077 217.623 188.237 217.588 192.536C217.588 196.835 217.501 201.064 217.328 205.224C217.155 206.021 216.773 206.645 216.184 207.096C215.595 207.547 214.953 207.789 214.26 207.824C213.567 207.859 212.891 207.685 212.232 207.304C211.608 206.923 211.175 206.316 210.932 205.484C210.239 196.852 210.083 188.341 210.464 179.952V179.9C209.944 179.761 209.372 179.675 208.748 179.64C208.124 179.571 207.483 179.536 206.824 179.536C206.165 179.536 205.507 179.553 204.848 179.588C204.224 179.623 203.652 179.64 203.132 179.64H203.08L203.132 179.692C203.201 184.268 203.184 188.879 203.08 193.524C202.976 198.169 202.924 202.78 202.924 207.356C202.993 208.951 203.444 210.32 204.276 211.464C205.143 212.573 206.2 213.475 207.448 214.168C208.731 214.827 210.152 215.277 211.712 215.52C213.272 215.797 214.78 215.867 216.236 215.728C218.732 215.485 220.708 214.567 222.164 212.972C223.62 211.377 224.487 209.436 224.764 207.148C225.249 202.676 225.527 198.187 225.596 193.68C225.665 189.139 225.596 184.649 225.388 180.212Z" fill="#FFDE39"/>
<path d="M341.048 308.26C341.637 308.26 342.053 308.225 342.296 308.156C342.539 308.087 342.695 308.035 342.764 308V306.96C342.764 306.267 342.747 305.573 342.712 304.88C342.712 304.187 342.712 303.493 342.712 302.8C342.712 301.829 342.712 300.876 342.712 299.94C342.747 299.004 342.764 298.033 342.764 297.028C342.764 295.537 342.764 294.047 342.764 292.556C342.764 291.065 342.747 289.592 342.712 288.136V271.392C341.707 271.184 340.563 271.08 339.28 271.08C337.963 271.08 336.715 271.184 335.536 271.392C335.501 272.259 335.467 273.073 335.432 273.836C335.432 274.564 335.432 275.292 335.432 276.02C335.432 277.268 335.449 278.499 335.484 279.712C335.553 280.891 335.588 282.173 335.588 283.56C335.588 284.149 335.553 284.756 335.484 285.38C335.415 286.004 335.328 286.351 335.224 286.42C335.189 286.42 335.068 286.229 334.86 285.848C334.652 285.432 334.392 284.947 334.08 284.392C333.803 283.803 333.491 283.161 333.144 282.468C332.797 281.74 332.468 281.064 332.156 280.44C331.844 279.781 331.567 279.209 331.324 278.724C331.081 278.239 330.925 277.909 330.856 277.736C330.544 277.008 330.267 276.419 330.024 275.968C329.816 275.483 329.608 275.049 329.4 274.668C329.227 274.287 329.036 273.888 328.828 273.472C328.62 273.056 328.395 272.536 328.152 271.912C328.152 271.843 327.961 271.773 327.58 271.704C327.233 271.635 326.817 271.583 326.332 271.548C325.847 271.479 325.361 271.444 324.876 271.444C324.391 271.409 324.044 271.392 323.836 271.392C323.42 271.392 323.004 271.409 322.588 271.444C322.207 271.479 321.843 271.531 321.496 271.6C321.323 273.819 321.201 276.107 321.132 278.464C321.063 280.787 321.028 283.144 321.028 285.536C321.028 288.795 321.045 291.915 321.08 294.896C321.149 297.877 321.184 301.015 321.184 304.308V307.948C321.981 307.948 322.796 308 323.628 308.104C324.495 308.208 325.344 308.26 326.176 308.26C326.557 308.26 326.939 308.243 327.32 308.208C327.701 308.173 328.083 308.104 328.464 308C328.429 307.411 328.412 306.752 328.412 306.024C328.412 305.261 328.412 304.481 328.412 303.684C328.412 302.228 328.412 300.72 328.412 299.16C328.447 297.6 328.481 296.179 328.516 294.896C328.551 293.613 328.585 292.556 328.62 291.724C328.689 290.892 328.741 290.476 328.776 290.476C328.845 290.476 328.932 290.649 329.036 290.996C329.175 291.308 329.313 291.655 329.452 292.036L329.972 293.596C330.769 295.815 331.723 298.137 332.832 300.564C333.976 302.956 335.12 305.435 336.264 308C336.957 308 337.755 308.035 338.656 308.104C339.557 308.208 340.355 308.26 341.048 308.26Z" fill="#FFDE39"/>
<rect width="430" height="60" rx="20" fill="#FF7471"/>
<path d="M158.882 36.634C158.865 36.4953 158.856 36.3393 158.856 36.166C158.873 35.9753 158.891 35.7933 158.908 35.62C158.925 35.4293 158.934 35.2387 158.934 35.048C158.795 35.0653 158.544 35.074 158.18 35.074C157.833 35.0567 157.426 35.0393 156.958 35.022C156.507 35.0047 156.022 34.9873 155.502 34.97C154.999 34.9353 154.523 34.9093 154.072 34.892C153.621 34.8747 153.223 34.866 152.876 34.866C152.547 34.8487 152.321 34.8573 152.2 34.892V34.866C152.217 33.7567 152.217 32.6127 152.2 31.434C152.2 30.238 152.191 29.042 152.174 27.846C152.157 26.65 152.139 25.4627 152.122 24.284C152.122 23.088 152.139 21.9267 152.174 20.8C151.931 20.696 151.611 20.618 151.212 20.566C150.813 20.514 150.406 20.488 149.99 20.488C149.574 20.488 149.184 20.514 148.82 20.566C148.456 20.6007 148.187 20.6527 148.014 20.722C148.031 21.9353 148.049 23.0447 148.066 24.05C148.083 25.038 148.101 25.974 148.118 26.858C148.135 27.742 148.144 28.6087 148.144 29.458C148.144 30.3073 148.135 31.1913 148.118 32.11C148.118 33.0113 148.101 33.9907 148.066 35.048C148.031 36.088 147.988 37.258 147.936 38.558V39.026C150.033 39.0607 151.706 39.078 152.954 39.078C154.219 39.078 155.207 39.0693 155.918 39.052C156.646 39.0347 157.157 39.0173 157.452 39C157.764 38.9827 158.015 38.9827 158.206 39C158.397 39 158.544 39 158.648 39C158.752 38.9827 158.821 38.9047 158.856 38.766C158.908 38.61 158.934 38.376 158.934 38.064C158.934 37.7347 158.917 37.258 158.882 36.634ZM171.178 21.606C170.97 21.4847 170.702 21.4067 170.372 21.372C170.043 21.3373 169.696 21.3287 169.332 21.346C168.968 21.3633 168.604 21.398 168.24 21.45C167.894 21.4847 167.608 21.5107 167.382 21.528C167.33 23.5387 167.296 25.6187 167.278 27.768C167.278 29.9173 167.235 32.032 167.148 34.112C167.062 34.5107 166.871 34.8227 166.576 35.048C166.282 35.2733 165.961 35.3947 165.614 35.412C165.268 35.4293 164.93 35.3427 164.6 35.152C164.288 34.9613 164.072 34.658 163.95 34.242C163.604 29.926 163.526 25.6707 163.716 21.476V21.45C163.456 21.3807 163.17 21.3373 162.858 21.32C162.546 21.2853 162.226 21.268 161.896 21.268C161.567 21.268 161.238 21.2767 160.908 21.294C160.596 21.3113 160.31 21.32 160.05 21.32H160.024L160.05 21.346C160.085 23.634 160.076 25.9393 160.024 28.262C159.972 30.5847 159.946 32.89 159.946 35.178C159.981 35.9753 160.206 36.66 160.622 37.232C161.056 37.7867 161.584 38.2373 162.208 38.584C162.85 38.9133 163.56 39.1387 164.34 39.26C165.12 39.3987 165.874 39.4333 166.602 39.364C167.85 39.2427 168.838 38.7833 169.566 37.986C170.294 37.1887 170.728 36.218 170.866 35.074C171.109 32.838 171.248 30.5933 171.282 28.34C171.317 26.0693 171.282 23.8247 171.178 21.606ZM183.135 39.13C183.43 39.13 183.638 39.1127 183.759 39.078C183.881 39.0433 183.959 39.0173 183.993 39V38.48C183.993 38.1333 183.985 37.7867 183.967 37.44C183.967 37.0933 183.967 36.7467 183.967 36.4C183.967 35.9147 183.967 35.438 183.967 34.97C183.985 34.502 183.993 34.0167 183.993 33.514C183.993 32.7687 183.993 32.0233 183.993 31.278C183.993 30.5327 183.985 29.796 183.967 29.068V20.696C183.465 20.592 182.893 20.54 182.251 20.54C181.593 20.54 180.969 20.592 180.379 20.696C180.362 21.1293 180.345 21.5367 180.327 21.918C180.327 22.282 180.327 22.646 180.327 23.01C180.327 23.634 180.336 24.2493 180.353 24.856C180.388 25.4453 180.405 26.0867 180.405 26.78C180.405 27.0747 180.388 27.378 180.353 27.69C180.319 28.002 180.275 28.1753 180.223 28.21C180.206 28.21 180.145 28.1147 180.041 27.924C179.937 27.716 179.807 27.4733 179.651 27.196C179.513 26.9013 179.357 26.5807 179.183 26.234C179.01 25.87 178.845 25.532 178.689 25.22C178.533 24.8907 178.395 24.6047 178.273 24.362C178.152 24.1193 178.074 23.9547 178.039 23.868C177.883 23.504 177.745 23.2093 177.623 22.984C177.519 22.7413 177.415 22.5247 177.311 22.334C177.225 22.1433 177.129 21.944 177.025 21.736C176.921 21.528 176.809 21.268 176.687 20.956C176.687 20.9213 176.592 20.8867 176.401 20.852C176.228 20.8173 176.02 20.7913 175.777 20.774C175.535 20.7393 175.292 20.722 175.049 20.722C174.807 20.7047 174.633 20.696 174.529 20.696C174.321 20.696 174.113 20.7047 173.905 20.722C173.715 20.7393 173.533 20.7653 173.359 20.8C173.273 21.9093 173.212 23.0533 173.177 24.232C173.143 25.3933 173.125 26.572 173.125 27.768C173.125 29.3973 173.134 30.9573 173.151 32.448C173.186 33.9387 173.203 35.5073 173.203 37.154V38.974C173.602 38.974 174.009 39 174.425 39.052C174.859 39.104 175.283 39.13 175.699 39.13C175.89 39.13 176.081 39.1213 176.271 39.104C176.462 39.0867 176.653 39.052 176.843 39C176.826 38.7053 176.817 38.376 176.817 38.012C176.817 37.6307 176.817 37.2407 176.817 36.842C176.817 36.114 176.817 35.36 176.817 34.58C176.835 33.8 176.852 33.0893 176.869 32.448C176.887 31.8067 176.904 31.278 176.921 30.862C176.956 30.446 176.982 30.238 176.999 30.238C177.034 30.238 177.077 30.3247 177.129 30.498C177.199 30.654 177.268 30.8273 177.337 31.018L177.597 31.798C177.996 32.9073 178.473 34.0687 179.027 35.282C179.599 36.478 180.171 37.7173 180.743 39C181.09 39 181.489 39.0173 181.939 39.052C182.39 39.104 182.789 39.13 183.135 39.13ZM194.473 29.874C194.403 29.5793 194.308 29.1807 194.187 28.678C194.065 28.1753 193.935 27.6207 193.797 27.014C193.658 26.4073 193.511 25.7747 193.355 25.116C193.216 24.4573 193.077 23.842 192.939 23.27C192.817 22.6807 192.696 22.1607 192.575 21.71C192.471 21.242 192.393 20.8953 192.341 20.67C191.769 20.722 191.301 20.7567 190.937 20.774C190.59 20.774 190.304 20.774 190.079 20.774C189.853 20.774 189.671 20.774 189.533 20.774C189.394 20.774 189.264 20.7827 189.143 20.8C188.727 22.1867 188.345 23.582 187.999 24.986C187.652 26.39 187.331 27.742 187.037 29.042C186.742 30.342 186.482 31.5727 186.257 32.734C186.049 33.878 185.867 34.892 185.711 35.776C185.555 36.66 185.433 37.3793 185.347 37.934C185.26 38.4887 185.199 38.8267 185.165 38.948C185.182 38.9653 185.199 38.974 185.217 38.974C186.395 38.9567 187.262 38.9653 187.817 39C188.371 39.0347 188.718 39.0347 188.857 39C188.874 39 188.883 39 188.883 39C188.9 38.9827 188.917 38.974 188.935 38.974C189.091 38.6793 189.212 38.3413 189.299 37.96C189.385 37.5787 189.463 37.1887 189.533 36.79C189.619 36.374 189.697 35.984 189.767 35.62C189.853 35.2387 189.957 34.9093 190.079 34.632C190.269 34.632 190.417 34.632 190.521 34.632C190.642 34.6147 190.746 34.606 190.833 34.606C190.937 34.606 191.049 34.606 191.171 34.606C191.292 34.606 191.465 34.6233 191.691 34.658C191.812 34.918 191.925 35.23 192.029 35.594C192.133 35.958 192.228 36.3393 192.315 36.738C192.419 37.1367 192.514 37.5267 192.601 37.908C192.705 38.2893 192.809 38.6187 192.913 38.896H192.939C193.493 39.0173 194.083 39.0867 194.707 39.104C195.331 39.1387 195.903 39.104 196.423 39V38.974L194.473 29.874ZM191.821 31.564C191.491 31.564 191.162 31.5727 190.833 31.59C190.503 31.59 190.191 31.5813 189.897 31.564C190.018 30.68 190.122 29.8567 190.209 29.094C190.313 28.3313 190.399 27.6987 190.469 27.196C190.555 26.6933 190.642 26.364 190.729 26.208C190.833 26.0347 190.928 26.0953 191.015 26.39C191.119 26.6847 191.231 27.248 191.353 28.08C191.491 28.912 191.647 30.0733 191.821 31.564Z" fill="#FFDE39"/>
<path d="M44.412 29.874C44.3427 29.5793 44.2473 29.1807 44.126 28.678C44.0047 28.1753 43.8747 27.6207 43.736 27.014C43.5973 26.4073 43.45 25.7747 43.294 25.116C43.1553 24.4573 43.0167 23.842 42.878 23.27C42.7567 22.6807 42.6353 22.1607 42.514 21.71C42.41 21.242 42.332 20.8953 42.28 20.67C41.708 20.722 41.24 20.7567 40.876 20.774C40.5293 20.774 40.2433 20.774 40.018 20.774C39.7927 20.774 39.6107 20.774 39.472 20.774C39.3333 20.774 39.2033 20.7827 39.082 20.8C38.666 22.1867 38.2847 23.582 37.938 24.986C37.5913 26.39 37.2707 27.742 36.976 29.042C36.6813 30.342 36.4213 31.5727 36.196 32.734C35.988 33.878 35.806 34.892 35.65 35.776C35.494 36.66 35.3727 37.3793 35.286 37.934C35.1993 38.4887 35.1387 38.8267 35.104 38.948C35.1213 38.9653 35.1387 38.974 35.156 38.974C36.3347 38.9567 37.2013 38.9653 37.756 39C38.3107 39.0347 38.6573 39.0347 38.796 39C38.8133 39 38.822 39 38.822 39C38.8393 38.9827 38.8567 38.974 38.874 38.974C39.03 38.6793 39.1513 38.3413 39.238 37.96C39.3247 37.5787 39.4027 37.1887 39.472 36.79C39.5587 36.374 39.6367 35.984 39.706 35.62C39.7927 35.2387 39.8967 34.9093 40.018 34.632C40.2087 34.632 40.356 34.632 40.46 34.632C40.5813 34.6147 40.6853 34.606 40.772 34.606C40.876 34.606 40.9887 34.606 41.11 34.606C41.2313 34.606 41.4047 34.6233 41.63 34.658C41.7513 34.918 41.864 35.23 41.968 35.594C42.072 35.958 42.1673 36.3393 42.254 36.738C42.358 37.1367 42.4533 37.5267 42.54 37.908C42.644 38.2893 42.748 38.6187 42.852 38.896H42.878C43.4327 39.0173 44.022 39.0867 44.646 39.104C45.27 39.1387 45.842 39.104 46.362 39V38.974L44.412 29.874ZM41.76 31.564C41.4307 31.564 41.1013 31.5727 40.772 31.59C40.4427 31.59 40.1307 31.5813 39.836 31.564C39.9573 30.68 40.0613 29.8567 40.148 29.094C40.252 28.3313 40.3387 27.6987 40.408 27.196C40.4947 26.6933 40.5813 26.364 40.668 26.208C40.772 26.0347 40.8673 26.0953 40.954 26.39C41.058 26.6847 41.1707 27.248 41.292 28.08C41.4307 28.912 41.5867 30.0733 41.76 31.564ZM58.1554 36.634C58.1381 36.4953 58.1294 36.3393 58.1294 36.166C58.1468 35.9753 58.1641 35.7933 58.1814 35.62C58.1988 35.4293 58.2074 35.2387 58.2074 35.048C58.0688 35.0653 57.8174 35.074 57.4534 35.074C57.1068 35.0567 56.6994 35.0393 56.2314 35.022C55.7808 35.0047 55.2954 34.9873 54.7754 34.97C54.2728 34.9353 53.7961 34.9093 53.3454 34.892C52.8948 34.8747 52.4961 34.866 52.1494 34.866C51.8201 34.8487 51.5948 34.8573 51.4734 34.892V34.866C51.4908 33.7567 51.4908 32.6127 51.4734 31.434C51.4734 30.238 51.4648 29.042 51.4474 27.846C51.4301 26.65 51.4128 25.4627 51.3954 24.284C51.3954 23.088 51.4128 21.9267 51.4474 20.8C51.2048 20.696 50.8841 20.618 50.4854 20.566C50.0868 20.514 49.6794 20.488 49.2634 20.488C48.8474 20.488 48.4574 20.514 48.0934 20.566C47.7294 20.6007 47.4608 20.6527 47.2874 20.722C47.3048 21.9353 47.3221 23.0447 47.3394 24.05C47.3568 25.038 47.3741 25.974 47.3914 26.858C47.4088 27.742 47.4174 28.6087 47.4174 29.458C47.4174 30.3073 47.4088 31.1913 47.3914 32.11C47.3914 33.0113 47.3741 33.9907 47.3394 35.048C47.3048 36.088 47.2614 37.258 47.2094 38.558V39.026C49.3068 39.0607 50.9794 39.078 52.2274 39.078C53.4928 39.078 54.4808 39.0693 55.1914 39.052C55.9194 39.0347 56.4308 39.0173 56.7254 39C57.0374 38.9827 57.2888 38.9827 57.4794 39C57.6701 39 57.8174 39 57.9214 39C58.0254 38.9827 58.0948 38.9047 58.1294 38.766C58.1814 38.61 58.2074 38.376 58.2074 38.064C58.2074 37.7347 58.1901 37.258 58.1554 36.634ZM64.5758 29.952C64.5411 29.9693 64.5238 29.978 64.5238 29.978C64.5065 29.978 64.4978 29.9867 64.4978 30.004V30.03C64.5325 30.342 64.5498 30.602 64.5498 30.81C64.5498 31.018 64.5411 31.226 64.5238 31.434C64.5238 31.6247 64.5238 31.824 64.5238 32.032C64.5411 32.24 64.5671 32.4827 64.6018 32.76C64.6885 32.7947 64.8098 32.8207 64.9658 32.838C65.1391 32.838 65.3211 32.838 65.5118 32.838C65.7198 32.8207 65.9105 32.812 66.0838 32.812C66.2745 32.7947 66.4218 32.7947 66.5258 32.812C66.5778 32.8293 66.6038 32.9073 66.6038 33.046C66.6211 33.1847 66.6211 33.3407 66.6038 33.514C66.6038 33.6873 66.5865 33.8607 66.5518 34.034C66.5345 34.19 66.5171 34.3027 66.4998 34.372C66.4305 34.6147 66.3265 34.814 66.1878 34.97C66.0491 35.1087 65.8845 35.2213 65.6938 35.308C65.4511 35.3947 65.1825 35.464 64.8878 35.516C64.6105 35.568 64.3418 35.5767 64.0818 35.542C63.8391 35.49 63.6398 35.412 63.4838 35.308C63.1545 35.048 62.9378 34.6927 62.8338 34.242C62.7298 33.7913 62.6605 33.3753 62.6258 32.994C62.5738 32.3527 62.5391 31.6767 62.5218 30.966C62.5045 30.2553 62.5131 29.5707 62.5478 28.912C62.5825 28.236 62.6345 27.6033 62.7038 27.014C62.7905 26.4247 62.8945 25.922 63.0158 25.506C63.0505 25.3673 63.0938 25.2287 63.1458 25.09C63.2151 24.934 63.2671 24.8387 63.3018 24.804C63.5098 24.596 63.7525 24.492 64.0298 24.492C64.3071 24.492 64.5931 24.5007 64.8878 24.518C65.1478 24.518 65.3731 24.6047 65.5638 24.778C65.7545 24.934 65.9191 25.1247 66.0578 25.35C66.2138 25.558 66.3351 25.792 66.4218 26.052C66.5258 26.2947 66.6038 26.5027 66.6558 26.676C66.9158 26.7107 67.1411 26.7367 67.3318 26.754C67.5225 26.7713 67.7045 26.78 67.8778 26.78C68.0685 26.78 68.2505 26.78 68.4238 26.78C68.6145 26.7627 68.8398 26.754 69.0998 26.754C69.3771 26.7367 69.5765 26.728 69.6978 26.728C69.8191 26.728 69.8971 26.702 69.9318 26.65L69.9578 26.494C70.0791 25.4367 69.9838 24.5267 69.6718 23.764C69.3598 22.984 68.8918 22.36 68.2678 21.892C67.6438 21.424 66.8985 21.1033 66.0318 20.93C65.1651 20.7393 64.2551 20.7047 63.3018 20.826C62.8338 20.8953 62.3831 20.9993 61.9498 21.138C61.5165 21.2767 61.1265 21.4933 60.7798 21.788C60.2771 22.1347 59.9131 22.5767 59.6878 23.114C59.4798 23.6513 59.3325 24.206 59.2458 24.778C59.1591 25.3327 59.0985 25.9047 59.0638 26.494C59.0291 27.066 59.0031 27.6293 58.9858 28.184C58.9685 28.8253 58.9598 29.3973 58.9598 29.9C58.9771 30.3853 58.9945 30.8533 59.0118 31.304C59.0465 31.7373 59.0811 32.1793 59.1158 32.63C59.1505 33.0807 59.1938 33.5833 59.2458 34.138C59.2805 34.4847 59.3238 34.8313 59.3758 35.178C59.4451 35.5073 59.5058 35.7673 59.5578 35.958C59.7658 36.7033 60.0518 37.3273 60.4158 37.83C60.7798 38.3327 61.3085 38.7313 62.0018 39.026C62.4178 39.1993 62.8511 39.312 63.3018 39.364C63.7698 39.416 64.2465 39.416 64.7318 39.364C65.2171 39.3293 65.6938 39.26 66.1618 39.156C66.6298 39.0693 67.0805 38.9653 67.5138 38.844C68.1725 38.6013 68.7271 38.246 69.1778 37.778C69.6285 37.31 69.8971 36.634 69.9838 35.75C70.1571 34.814 70.2265 33.8347 70.1918 32.812C70.1571 31.772 70.0878 30.7927 69.9838 29.874L69.9578 29.848H69.9058C69.7325 29.848 69.3945 29.8307 68.8918 29.796C68.4065 29.744 67.8778 29.7093 67.3058 29.692C66.7338 29.6747 66.1878 29.6833 65.6678 29.718C65.1651 29.7353 64.8011 29.8133 64.5758 29.952ZM82.9694 21.606C82.7614 21.4847 82.4927 21.4067 82.1634 21.372C81.8341 21.3373 81.4874 21.3287 81.1234 21.346C80.7594 21.3633 80.3954 21.398 80.0314 21.45C79.6847 21.4847 79.3987 21.5107 79.1734 21.528C79.1214 23.5387 79.0867 25.6187 79.0694 27.768C79.0694 29.9173 79.0261 32.032 78.9394 34.112C78.8527 34.5107 78.6621 34.8227 78.3674 35.048C78.0727 35.2733 77.7521 35.3947 77.4054 35.412C77.0587 35.4293 76.7207 35.3427 76.3914 35.152C76.0794 34.9613 75.8627 34.658 75.7414 34.242C75.3947 29.926 75.3167 25.6707 75.5074 21.476V21.45C75.2474 21.3807 74.9614 21.3373 74.6494 21.32C74.3374 21.2853 74.0167 21.268 73.6874 21.268C73.3581 21.268 73.0287 21.2767 72.6994 21.294C72.3874 21.3113 72.1014 21.32 71.8414 21.32H71.8154L71.8414 21.346C71.8761 23.634 71.8674 25.9393 71.8154 28.262C71.7634 30.5847 71.7374 32.89 71.7374 35.178C71.7721 35.9753 71.9974 36.66 72.4134 37.232C72.8467 37.7867 73.3754 38.2373 73.9994 38.584C74.6407 38.9133 75.3514 39.1387 76.1314 39.26C76.9114 39.3987 77.6654 39.4333 78.3934 39.364C79.6414 39.2427 80.6294 38.7833 81.3574 37.986C82.0854 37.1887 82.5187 36.218 82.6574 35.074C82.9001 32.838 83.0387 30.5933 83.0734 28.34C83.1081 26.0693 83.0734 23.8247 82.9694 21.606ZM94.9263 39.13C95.221 39.13 95.429 39.1127 95.5503 39.078C95.6717 39.0433 95.7497 39.0173 95.7843 39V38.48C95.7843 38.1333 95.7757 37.7867 95.7583 37.44C95.7583 37.0933 95.7583 36.7467 95.7583 36.4C95.7583 35.9147 95.7583 35.438 95.7583 34.97C95.7757 34.502 95.7843 34.0167 95.7843 33.514C95.7843 32.7687 95.7843 32.0233 95.7843 31.278C95.7843 30.5327 95.7757 29.796 95.7583 29.068V20.696C95.2557 20.592 94.6837 20.54 94.0423 20.54C93.3837 20.54 92.7597 20.592 92.1703 20.696C92.153 21.1293 92.1357 21.5367 92.1183 21.918C92.1183 22.282 92.1183 22.646 92.1183 23.01C92.1183 23.634 92.127 24.2493 92.1443 24.856C92.179 25.4453 92.1963 26.0867 92.1963 26.78C92.1963 27.0747 92.179 27.378 92.1443 27.69C92.1097 28.002 92.0663 28.1753 92.0143 28.21C91.997 28.21 91.9363 28.1147 91.8323 27.924C91.7283 27.716 91.5983 27.4733 91.4423 27.196C91.3037 26.9013 91.1477 26.5807 90.9743 26.234C90.801 25.87 90.6363 25.532 90.4803 25.22C90.3243 24.8907 90.1857 24.6047 90.0643 24.362C89.943 24.1193 89.865 23.9547 89.8303 23.868C89.6743 23.504 89.5357 23.2093 89.4143 22.984C89.3103 22.7413 89.2063 22.5247 89.1023 22.334C89.0157 22.1433 88.9203 21.944 88.8163 21.736C88.7123 21.528 88.5997 21.268 88.4783 20.956C88.4783 20.9213 88.383 20.8867 88.1923 20.852C88.019 20.8173 87.811 20.7913 87.5683 20.774C87.3257 20.7393 87.083 20.722 86.8403 20.722C86.5977 20.7047 86.4243 20.696 86.3203 20.696C86.1123 20.696 85.9043 20.7047 85.6963 20.722C85.5057 20.7393 85.3237 20.7653 85.1503 20.8C85.0637 21.9093 85.003 23.0533 84.9683 24.232C84.9337 25.3933 84.9163 26.572 84.9163 27.768C84.9163 29.3973 84.925 30.9573 84.9423 32.448C84.977 33.9387 84.9943 35.5073 84.9943 37.154V38.974C85.393 38.974 85.8003 39 86.2163 39.052C86.6497 39.104 87.0743 39.13 87.4903 39.13C87.681 39.13 87.8717 39.1213 88.0623 39.104C88.253 39.0867 88.4437 39.052 88.6343 39C88.617 38.7053 88.6083 38.376 88.6083 38.012C88.6083 37.6307 88.6083 37.2407 88.6083 36.842C88.6083 36.114 88.6083 35.36 88.6083 34.58C88.6257 33.8 88.643 33.0893 88.6603 32.448C88.6777 31.8067 88.695 31.278 88.7123 30.862C88.747 30.446 88.773 30.238 88.7903 30.238C88.825 30.238 88.8683 30.3247 88.9203 30.498C88.9897 30.654 89.059 30.8273 89.1283 31.018L89.3883 31.798C89.787 32.9073 90.2637 34.0687 90.8183 35.282C91.3903 36.478 91.9623 37.7173 92.5343 39C92.881 39 93.2797 39.0173 93.7303 39.052C94.181 39.104 94.5797 39.13 94.9263 39.13Z" fill="#FFDE39"/>
<path d="M258.024 39.13C258.319 39.13 258.527 39.1127 258.648 39.078C258.769 39.0433 258.847 39.0173 258.882 39V38.48C258.882 38.1333 258.873 37.7867 258.856 37.44C258.856 37.0933 258.856 36.7467 258.856 36.4C258.856 35.9147 258.856 35.438 258.856 34.97C258.873 34.502 258.882 34.0167 258.882 33.514C258.882 32.7687 258.882 32.0233 258.882 31.278C258.882 30.5327 258.873 29.796 258.856 29.068V20.696C258.353 20.592 257.781 20.54 257.14 20.54C256.481 20.54 255.857 20.592 255.268 20.696C255.251 21.1293 255.233 21.5367 255.216 21.918C255.216 22.282 255.216 22.646 255.216 23.01C255.216 23.634 255.225 24.2493 255.242 24.856C255.277 25.4453 255.294 26.0867 255.294 26.78C255.294 27.0747 255.277 27.378 255.242 27.69C255.207 28.002 255.164 28.1753 255.112 28.21C255.095 28.21 255.034 28.1147 254.93 27.924C254.826 27.716 254.696 27.4733 254.54 27.196C254.401 26.9013 254.245 26.5807 254.072 26.234C253.899 25.87 253.734 25.532 253.578 25.22C253.422 24.8907 253.283 24.6047 253.162 24.362C253.041 24.1193 252.963 23.9547 252.928 23.868C252.772 23.504 252.633 23.2093 252.512 22.984C252.408 22.7413 252.304 22.5247 252.2 22.334C252.113 22.1433 252.018 21.944 251.914 21.736C251.81 21.528 251.697 21.268 251.576 20.956C251.576 20.9213 251.481 20.8867 251.29 20.852C251.117 20.8173 250.909 20.7913 250.666 20.774C250.423 20.7393 250.181 20.722 249.938 20.722C249.695 20.7047 249.522 20.696 249.418 20.696C249.21 20.696 249.002 20.7047 248.794 20.722C248.603 20.7393 248.421 20.7653 248.248 20.8C248.161 21.9093 248.101 23.0533 248.066 24.232C248.031 25.3933 248.014 26.572 248.014 27.768C248.014 29.3973 248.023 30.9573 248.04 32.448C248.075 33.9387 248.092 35.5073 248.092 37.154V38.974C248.491 38.974 248.898 39 249.314 39.052C249.747 39.104 250.172 39.13 250.588 39.13C250.779 39.13 250.969 39.1213 251.16 39.104C251.351 39.0867 251.541 39.052 251.732 39C251.715 38.7053 251.706 38.376 251.706 38.012C251.706 37.6307 251.706 37.2407 251.706 36.842C251.706 36.114 251.706 35.36 251.706 34.58C251.723 33.8 251.741 33.0893 251.758 32.448C251.775 31.8067 251.793 31.278 251.81 30.862C251.845 30.446 251.871 30.238 251.888 30.238C251.923 30.238 251.966 30.3247 252.018 30.498C252.087 30.654 252.157 30.8273 252.226 31.018L252.486 31.798C252.885 32.9073 253.361 34.0687 253.916 35.282C254.488 36.478 255.06 37.7173 255.632 39C255.979 39 256.377 39.0173 256.828 39.052C257.279 39.104 257.677 39.13 258.024 39.13ZM272.143 21.606C271.935 21.4847 271.667 21.4067 271.337 21.372C271.008 21.3373 270.661 21.3287 270.297 21.346C269.933 21.3633 269.569 21.398 269.205 21.45C268.859 21.4847 268.573 21.5107 268.347 21.528C268.295 23.5387 268.261 25.6187 268.243 27.768C268.243 29.9173 268.2 32.032 268.113 34.112C268.027 34.5107 267.836 34.8227 267.541 35.048C267.247 35.2733 266.926 35.3947 266.579 35.412C266.233 35.4293 265.895 35.3427 265.565 35.152C265.253 34.9613 265.037 34.658 264.915 34.242C264.569 29.926 264.491 25.6707 264.681 21.476V21.45C264.421 21.3807 264.135 21.3373 263.823 21.32C263.511 21.2853 263.191 21.268 262.861 21.268C262.532 21.268 262.203 21.2767 261.873 21.294C261.561 21.3113 261.275 21.32 261.015 21.32H260.989L261.015 21.346C261.05 23.634 261.041 25.9393 260.989 28.262C260.937 30.5847 260.911 32.89 260.911 35.178C260.946 35.9753 261.171 36.66 261.587 37.232C262.021 37.7867 262.549 38.2373 263.173 38.584C263.815 38.9133 264.525 39.1387 265.305 39.26C266.085 39.3987 266.839 39.4333 267.567 39.364C268.815 39.2427 269.803 38.7833 270.531 37.986C271.259 37.1887 271.693 36.218 271.831 35.074C272.074 32.838 272.213 30.5933 272.247 28.34C272.282 26.0693 272.247 23.8247 272.143 21.606ZM284.958 36.634C284.941 36.4953 284.932 36.3393 284.932 36.166C284.95 35.9753 284.967 35.7933 284.984 35.62C285.002 35.4293 285.01 35.2387 285.01 35.048C284.872 35.0653 284.62 35.074 284.256 35.074C283.91 35.0567 283.502 35.0393 283.034 35.022C282.584 35.0047 282.098 34.9873 281.578 34.97C281.076 34.9353 280.599 34.9093 280.148 34.892C279.698 34.8747 279.299 34.866 278.952 34.866C278.623 34.8487 278.398 34.8573 278.276 34.892V34.866C278.294 33.7567 278.294 32.6127 278.276 31.434C278.276 30.238 278.268 29.042 278.25 27.846C278.233 26.65 278.216 25.4627 278.198 24.284C278.198 23.088 278.216 21.9267 278.25 20.8C278.008 20.696 277.687 20.618 277.288 20.566C276.89 20.514 276.482 20.488 276.066 20.488C275.65 20.488 275.26 20.514 274.896 20.566C274.532 20.6007 274.264 20.6527 274.09 20.722C274.108 21.9353 274.125 23.0447 274.142 24.05C274.16 25.038 274.177 25.974 274.194 26.858C274.212 27.742 274.22 28.6087 274.22 29.458C274.22 30.3073 274.212 31.1913 274.194 32.11C274.194 33.0113 274.177 33.9907 274.142 35.048C274.108 36.088 274.064 37.258 274.012 38.558V39.026C276.11 39.0607 277.782 39.078 279.03 39.078C280.296 39.078 281.284 39.0693 281.994 39.052C282.722 39.0347 283.234 39.0173 283.528 39C283.84 38.9827 284.092 38.9827 284.282 39C284.473 39 284.62 39 284.724 39C284.828 38.9827 284.898 38.9047 284.932 38.766C284.984 38.61 285.01 38.376 285.01 38.064C285.01 37.7347 284.993 37.258 284.958 36.634ZM294.473 29.874C294.403 29.5793 294.308 29.1807 294.187 28.678C294.065 28.1753 293.935 27.6207 293.797 27.014C293.658 26.4073 293.511 25.7747 293.355 25.116C293.216 24.4573 293.077 23.842 292.939 23.27C292.817 22.6807 292.696 22.1607 292.575 21.71C292.471 21.242 292.393 20.8953 292.341 20.67C291.769 20.722 291.301 20.7567 290.937 20.774C290.59 20.774 290.304 20.774 290.079 20.774C289.853 20.774 289.671 20.774 289.533 20.774C289.394 20.774 289.264 20.7827 289.143 20.8C288.727 22.1867 288.345 23.582 287.999 24.986C287.652 26.39 287.331 27.742 287.037 29.042C286.742 30.342 286.482 31.5727 286.257 32.734C286.049 33.878 285.867 34.892 285.711 35.776C285.555 36.66 285.433 37.3793 285.347 37.934C285.26 38.4887 285.199 38.8267 285.165 38.948C285.182 38.9653 285.199 38.974 285.217 38.974C286.395 38.9567 287.262 38.9653 287.817 39C288.371 39.0347 288.718 39.0347 288.857 39C288.874 39 288.883 39 288.883 39C288.9 38.9827 288.917 38.974 288.935 38.974C289.091 38.6793 289.212 38.3413 289.299 37.96C289.385 37.5787 289.463 37.1887 289.533 36.79C289.619 36.374 289.697 35.984 289.767 35.62C289.853 35.2387 289.957 34.9093 290.079 34.632C290.269 34.632 290.417 34.632 290.521 34.632C290.642 34.6147 290.746 34.606 290.833 34.606C290.937 34.606 291.049 34.606 291.171 34.606C291.292 34.606 291.465 34.6233 291.691 34.658C291.812 34.918 291.925 35.23 292.029 35.594C292.133 35.958 292.228 36.3393 292.315 36.738C292.419 37.1367 292.514 37.5267 292.601 37.908C292.705 38.2893 292.809 38.6187 292.913 38.896H292.939C293.493 39.0173 294.083 39.0867 294.707 39.104C295.331 39.1387 295.903 39.104 296.423 39V38.974L294.473 29.874ZM291.821 31.564C291.491 31.564 291.162 31.5727 290.833 31.59C290.503 31.59 290.191 31.5813 289.897 31.564C290.018 30.68 290.122 29.8567 290.209 29.094C290.313 28.3313 290.399 27.6987 290.469 27.196C290.555 26.6933 290.642 26.364 290.729 26.208C290.833 26.0347 290.928 26.0953 291.015 26.39C291.119 26.6847 291.231 27.248 291.353 28.08C291.491 28.912 291.647 30.0733 291.821 31.564Z" fill="#FFDE39"/>
<path d="M353.318 29.952C353.283 29.9693 353.266 29.978 353.266 29.978C353.249 29.978 353.24 29.9867 353.24 30.004V30.03C353.275 30.342 353.292 30.602 353.292 30.81C353.292 31.018 353.283 31.226 353.266 31.434C353.266 31.6247 353.266 31.824 353.266 32.032C353.283 32.24 353.309 32.4827 353.344 32.76C353.431 32.7947 353.552 32.8207 353.708 32.838C353.881 32.838 354.063 32.838 354.254 32.838C354.462 32.8207 354.653 32.812 354.826 32.812C355.017 32.7947 355.164 32.7947 355.268 32.812C355.32 32.8293 355.346 32.9073 355.346 33.046C355.363 33.1847 355.363 33.3407 355.346 33.514C355.346 33.6873 355.329 33.8607 355.294 34.034C355.277 34.19 355.259 34.3027 355.242 34.372C355.173 34.6147 355.069 34.814 354.93 34.97C354.791 35.1087 354.627 35.2213 354.436 35.308C354.193 35.3947 353.925 35.464 353.63 35.516C353.353 35.568 353.084 35.5767 352.824 35.542C352.581 35.49 352.382 35.412 352.226 35.308C351.897 35.048 351.68 34.6927 351.576 34.242C351.472 33.7913 351.403 33.3753 351.368 32.994C351.316 32.3527 351.281 31.6767 351.264 30.966C351.247 30.2553 351.255 29.5707 351.29 28.912C351.325 28.236 351.377 27.6033 351.446 27.014C351.533 26.4247 351.637 25.922 351.758 25.506C351.793 25.3673 351.836 25.2287 351.888 25.09C351.957 24.934 352.009 24.8387 352.044 24.804C352.252 24.596 352.495 24.492 352.772 24.492C353.049 24.492 353.335 24.5007 353.63 24.518C353.89 24.518 354.115 24.6047 354.306 24.778C354.497 24.934 354.661 25.1247 354.8 25.35C354.956 25.558 355.077 25.792 355.164 26.052C355.268 26.2947 355.346 26.5027 355.398 26.676C355.658 26.7107 355.883 26.7367 356.074 26.754C356.265 26.7713 356.447 26.78 356.62 26.78C356.811 26.78 356.993 26.78 357.166 26.78C357.357 26.7627 357.582 26.754 357.842 26.754C358.119 26.7367 358.319 26.728 358.44 26.728C358.561 26.728 358.639 26.702 358.674 26.65L358.7 26.494C358.821 25.4367 358.726 24.5267 358.414 23.764C358.102 22.984 357.634 22.36 357.01 21.892C356.386 21.424 355.641 21.1033 354.774 20.93C353.907 20.7393 352.997 20.7047 352.044 20.826C351.576 20.8953 351.125 20.9993 350.692 21.138C350.259 21.2767 349.869 21.4933 349.522 21.788C349.019 22.1347 348.655 22.5767 348.43 23.114C348.222 23.6513 348.075 24.206 347.988 24.778C347.901 25.3327 347.841 25.9047 347.806 26.494C347.771 27.066 347.745 27.6293 347.728 28.184C347.711 28.8253 347.702 29.3973 347.702 29.9C347.719 30.3853 347.737 30.8533 347.754 31.304C347.789 31.7373 347.823 32.1793 347.858 32.63C347.893 33.0807 347.936 33.5833 347.988 34.138C348.023 34.4847 348.066 34.8313 348.118 35.178C348.187 35.5073 348.248 35.7673 348.3 35.958C348.508 36.7033 348.794 37.3273 349.158 37.83C349.522 38.3327 350.051 38.7313 350.744 39.026C351.16 39.1993 351.593 39.312 352.044 39.364C352.512 39.416 352.989 39.416 353.474 39.364C353.959 39.3293 354.436 39.26 354.904 39.156C355.372 39.0693 355.823 38.9653 356.256 38.844C356.915 38.6013 357.469 38.246 357.92 37.778C358.371 37.31 358.639 36.634 358.726 35.75C358.899 34.814 358.969 33.8347 358.934 32.812C358.899 31.772 358.83 30.7927 358.726 29.874L358.7 29.848H358.648C358.475 29.848 358.137 29.8307 357.634 29.796C357.149 29.744 356.62 29.7093 356.048 29.692C355.476 29.6747 354.93 29.6833 354.41 29.718C353.907 29.7353 353.543 29.8133 353.318 29.952ZM371.712 21.606C371.504 21.4847 371.235 21.4067 370.906 21.372C370.576 21.3373 370.23 21.3287 369.866 21.346C369.502 21.3633 369.138 21.398 368.774 21.45C368.427 21.4847 368.141 21.5107 367.916 21.528C367.864 23.5387 367.829 25.6187 367.812 27.768C367.812 29.9173 367.768 32.032 367.682 34.112C367.595 34.5107 367.404 34.8227 367.11 35.048C366.815 35.2733 366.494 35.3947 366.148 35.412C365.801 35.4293 365.463 35.3427 365.134 35.152C364.822 34.9613 364.605 34.658 364.484 34.242C364.137 29.926 364.059 25.6707 364.25 21.476V21.45C363.99 21.3807 363.704 21.3373 363.392 21.32C363.08 21.2853 362.759 21.268 362.43 21.268C362.1 21.268 361.771 21.2767 361.442 21.294C361.13 21.3113 360.844 21.32 360.584 21.32H360.558L360.584 21.346C360.618 23.634 360.61 25.9393 360.558 28.262C360.506 30.5847 360.48 32.89 360.48 35.178C360.514 35.9753 360.74 36.66 361.156 37.232C361.589 37.7867 362.118 38.2373 362.742 38.584C363.383 38.9133 364.094 39.1387 364.874 39.26C365.654 39.3987 366.408 39.4333 367.136 39.364C368.384 39.2427 369.372 38.7833 370.1 37.986C370.828 37.1887 371.261 36.218 371.4 35.074C371.642 32.838 371.781 30.5933 371.816 28.34C371.85 26.0693 371.816 23.8247 371.712 21.606ZM384.527 36.634C384.509 36.4953 384.501 36.3393 384.501 36.166C384.518 35.9753 384.535 35.7933 384.553 35.62C384.57 35.4293 384.579 35.2387 384.579 35.048C384.44 35.0653 384.189 35.074 383.825 35.074C383.478 35.0567 383.071 35.0393 382.603 35.022C382.152 35.0047 381.667 34.9873 381.147 34.97C380.644 34.9353 380.167 34.9093 379.717 34.892C379.266 34.8747 378.867 34.866 378.521 34.866C378.191 34.8487 377.966 34.8573 377.845 34.892V34.866C377.862 33.7567 377.862 32.6127 377.845 31.434C377.845 30.238 377.836 29.042 377.819 27.846C377.801 26.65 377.784 25.4627 377.767 24.284C377.767 23.088 377.784 21.9267 377.819 20.8C377.576 20.696 377.255 20.618 376.857 20.566C376.458 20.514 376.051 20.488 375.635 20.488C375.219 20.488 374.829 20.514 374.465 20.566C374.101 20.6007 373.832 20.6527 373.659 20.722C373.676 21.9353 373.693 23.0447 373.711 24.05C373.728 25.038 373.745 25.974 373.763 26.858C373.78 27.742 373.789 28.6087 373.789 29.458C373.789 30.3073 373.78 31.1913 373.763 32.11C373.763 33.0113 373.745 33.9907 373.711 35.048C373.676 36.088 373.633 37.258 373.581 38.558V39.026C375.678 39.0607 377.351 39.078 378.599 39.078C379.864 39.078 380.852 39.0693 381.563 39.052C382.291 39.0347 382.802 39.0173 383.097 39C383.409 38.9827 383.66 38.9827 383.851 39C384.041 39 384.189 39 384.293 39C384.397 38.9827 384.466 38.9047 384.501 38.766C384.553 38.61 384.579 38.376 384.579 38.064C384.579 37.7347 384.561 37.258 384.527 36.634ZM394.041 29.874C393.972 29.5793 393.876 29.1807 393.755 28.678C393.634 28.1753 393.504 27.6207 393.365 27.014C393.226 26.4073 393.079 25.7747 392.923 25.116C392.784 24.4573 392.646 23.842 392.507 23.27C392.386 22.6807 392.264 22.1607 392.143 21.71C392.039 21.242 391.961 20.8953 391.909 20.67C391.337 20.722 390.869 20.7567 390.505 20.774C390.158 20.774 389.872 20.774 389.647 20.774C389.422 20.774 389.24 20.774 389.101 20.774C388.962 20.774 388.832 20.7827 388.711 20.8C388.295 22.1867 387.914 23.582 387.567 24.986C387.22 26.39 386.9 27.742 386.605 29.042C386.31 30.342 386.05 31.5727 385.825 32.734C385.617 33.878 385.435 34.892 385.279 35.776C385.123 36.66 385.002 37.3793 384.915 37.934C384.828 38.4887 384.768 38.8267 384.733 38.948C384.75 38.9653 384.768 38.974 384.785 38.974C385.964 38.9567 386.83 38.9653 387.385 39C387.94 39.0347 388.286 39.0347 388.425 39C388.442 39 388.451 39 388.451 39C388.468 38.9827 388.486 38.974 388.503 38.974C388.659 38.6793 388.78 38.3413 388.867 37.96C388.954 37.5787 389.032 37.1887 389.101 36.79C389.188 36.374 389.266 35.984 389.335 35.62C389.422 35.2387 389.526 34.9093 389.647 34.632C389.838 34.632 389.985 34.632 390.089 34.632C390.21 34.6147 390.314 34.606 390.401 34.606C390.505 34.606 390.618 34.606 390.739 34.606C390.86 34.606 391.034 34.6233 391.259 34.658C391.38 34.918 391.493 35.23 391.597 35.594C391.701 35.958 391.796 36.3393 391.883 36.738C391.987 37.1367 392.082 37.5267 392.169 37.908C392.273 38.2893 392.377 38.6187 392.481 38.896H392.507C393.062 39.0173 393.651 39.0867 394.275 39.104C394.899 39.1387 395.471 39.104 395.991 39V38.974L394.041 29.874ZM391.389 31.564C391.06 31.564 390.73 31.5727 390.401 31.59C390.072 31.59 389.76 31.5813 389.465 31.564C389.586 30.68 389.69 29.8567 389.777 29.094C389.881 28.3313 389.968 27.6987 390.037 27.196C390.124 26.6933 390.21 26.364 390.297 26.208C390.401 26.0347 390.496 26.0953 390.583 26.39C390.687 26.6847 390.8 27.248 390.921 28.08C391.06 28.912 391.216 30.0733 391.389 31.564Z" fill="#FFDE39"/>
</svg>
